<svg width="56" height="16" viewBox="0 0 56 16" fill="none" xmlns="http://www.w3.org/2000/svg">
<g clip-path="url(#clip0_557_2887)">
<path d="M8 13.3333L0 5.33333C1.05556 4.25556 2.275 3.43056 3.65833 2.85833C5.04167 2.28611 6.48889 2 8 2C9.51111 2 10.9583 2.28611 12.3417 2.85833C13.725 3.43056 14.9444 4.25556 16 5.33333L8 13.3333Z" fill="#333333"/>
<path d="M21 14.3333L34.3333 1V14.3333H21ZM29.6667 13H33V4.23333L29.6667 7.56667V13Z" fill="#333333"/>
<path d="M45.6667 14.3333C45.4778 14.3333 45.3194 14.2694 45.1917 14.1417C45.0639 14.0139 45 13.8556 45 13.6667V3C45 2.81111 45.0639 2.65278 45.1917 2.525C45.3194 2.39722 45.4778 2.33333 45.6667 2.33333H47V1H49.6667V2.33333H51C51.1889 2.33333 51.3472 2.39722 51.475 2.525C51.6028 2.65278 51.6667 2.81111 51.6667 3V13.6667C51.6667 13.8556 51.6028 14.0139 51.475 14.1417C51.3472 14.2694 51.1889 14.3333 51 14.3333H45.6667ZM46.3333 5H50.3333V3.66667H46.3333V5Z" fill="#333333"/>
</g>
<defs>
<clipPath id="clip0_557_2887">
<rect width="56" height="16" fill="white"/>
</clipPath>
</defs>
</svg>
