<svg width="16" height="16" viewBox="0 0 16 16" fill="none" xmlns="http://www.w3.org/2000/svg">
<path d="M8 0C12.4182 0.000148433 16 3.58181 16 8C16 12.4182 12.4182 15.9999 8 16C3.58185 15.9999 0 12.4182 0 8C0 3.58181 3.58185 0.000148436 8 0ZM8 1C4.13413 1.00015 1 4.1341 1 8C1 11.8659 4.13413 14.9999 8 15C11.8659 14.9999 15 11.8659 15 8C15 4.1341 11.8659 1.00015 8 1ZM8 2C11.3137 2 14 4.68629 14 8C14 11.3137 11.3137 14 8 14C4.68629 14 2 11.3137 2 8C2 4.68629 4.68629 2 8 2Z" fill="#797979"/>
</svg>
